<svg width="177" height="18" fill="none" xmlns="http://www.w3.org/2000/svg"><path d="M3.872 10.76h6.533V7.24H3.872V3.521h7.985V0H0v17.609h3.872V10.76zM13.183 11.005v6.604h3.63v-6.604c0-2.03 1.621-3.668 3.63-3.668V4.011h-.484c-4.017 0-6.776 3.13-6.776 6.994zM28.557 4.01c-4.016 0-7.259 3.131-7.259 6.995 0 3.865 3.243 6.995 7.26 6.995 3.194 0 5.904-1.981 6.872-4.745h-4.017a3.599 3.599 0 0 1-2.856 1.419c-1.572 0-2.88-1.003-3.412-2.397h10.55c.074-.416.122-.831.122-1.272 0-3.864-3.243-6.994-7.26-6.994zm-3.412 5.724c.533-1.394 1.84-2.397 3.412-2.397 1.55 0 2.88 1.003 3.412 2.397h-6.824zM43.745 9.832c-1.403-.172-3-.783-3-1.566 0-.88.75-1.174 1.548-1.174.799 0 1.55.294 1.55 1.419h3.629c0-2.837-2.372-4.5-5.179-4.5-2.807 0-5.178 1.663-5.178 4.353 0 2.079 2.444 3.644 4.985 3.962 1.089.147 1.887.71 1.887 1.32 0 .857-.895 1.272-1.694 1.272-.798 0-1.694-.293-1.694-1.418h-3.63c0 2.837 2.517 4.5 5.324 4.5s5.324-1.663 5.324-4.5c0-2.226-1.96-3.448-3.872-3.668zM56.282 4.01c-1.21 0-2.299.441-3.146 1.175V0h-3.63v17.609h3.63V10.98c0-2.005 1.138-3.644 3.146-3.644 2.009 0 3.146 1.639 3.146 3.668v6.604h3.63v-6.604c0-3.864-2.759-6.994-6.776-6.994zM72.017 4.01c-4.016 0-6.775 3.131-6.775 6.995v6.604h3.63v-6.604c0-2.03 1.137-3.668 3.145-3.668 2.009 0 3.146 1.639 3.146 3.668v6.604h3.63v-6.604c0-3.864-2.759-6.994-6.776-6.994zM87.635 4.01c-4.017 0-7.26 3.131-7.26 6.995 0 3.865 3.243 6.995 7.26 6.995 3.194 0 5.904-1.981 6.872-4.745H90.49a3.598 3.598 0 0 1-2.855 1.419c-1.573 0-2.88-1.003-3.412-2.397h10.55c.073-.416.121-.831.121-1.272 0-3.864-3.243-6.994-7.26-6.994zm-3.412 5.724c.532-1.394 1.839-2.397 3.412-2.397 1.548 0 2.88 1.003 3.412 2.397h-6.824zM102.822 9.832c-1.403-.172-3-.783-3-1.566 0-.88.75-1.174 1.549-1.174.798 0 1.548.294 1.548 1.419h3.63c0-2.837-2.371-4.5-5.178-4.5s-5.179 1.663-5.179 4.353c0 2.079 2.444 3.644 4.985 3.962 1.089.147 1.887.71 1.887 1.32 0 .857-.895 1.272-1.693 1.272-.799 0-1.694-.293-1.694-1.418h-3.63c0 2.837 2.517 4.5 5.324 4.5s5.323-1.663 5.323-4.5c0-2.226-1.96-3.448-3.872-3.668zM115.117 4.01c-4.017 0-7.259 3.131-7.259 6.995 0 3.865 3.242 6.995 7.259 6.995 3.194 0 5.905-1.981 6.873-4.745h-4.017a3.6 3.6 0 0 1-2.856 1.419c-1.573 0-2.879-1.003-3.412-2.397h10.551c.072-.416.121-.831.121-1.272 0-3.864-3.243-6.994-7.26-6.994zm-3.412 5.724c.533-1.394 1.839-2.397 3.412-2.397 1.549 0 2.88 1.003 3.412 2.397h-6.824zM130.596 7.337c1.403 0 2.589.783 3.218 1.956h3.823c-.798-3.032-3.654-5.282-7.041-5.282-4.017 0-7.26 3.13-7.26 6.994 0 3.865 3.243 6.995 7.26 6.995 3.363 0 6.17-2.201 6.993-5.185h-3.896c-.605 1.1-1.742 1.859-3.097 1.859-2.009 0-3.63-1.639-3.63-3.669 0-2.03 1.621-3.668 3.63-3.668zM152.929 11.005c0-3.864-3.218-6.994-7.211-6.994-3.992 0-7.211 3.13-7.211 6.994 0 3.865 3.219 6.995 7.211 6.995 3.993 0 7.211-3.13 7.211-6.995zm-3.629 0c0 2.03-1.598 3.669-3.582 3.669-1.984 0-3.581-1.639-3.581-3.669 0-2.03 1.597-3.668 3.581-3.668s3.582 1.639 3.582 3.668zM170.467 4.01a6.112 6.112 0 0 0-4.719 2.226 6.112 6.112 0 0 0-4.719-2.225c-4.017 0-6.533 3.13-6.533 6.994v6.604h3.63v-6.604c0-2.03.895-3.668 2.903-3.668 2.009 0 2.904 1.639 2.904 3.668v6.604h3.63v-6.604c0-2.03.895-3.668 2.904-3.668 2.008 0 2.903 1.639 2.903 3.668v6.604H177v-6.604c0-3.864-2.517-6.994-6.533-6.994z" fill="#151515"/></svg>