<svg width="13" height="12" viewBox="0 0 13 12" fill="none" xmlns="http://www.w3.org/2000/svg">
<path d="M5.25 0.999969H3.25C2.69772 0.999969 2.25 1.44768 2.25 1.99997V3.99997C2.25 4.55225 2.69772 4.99997 3.25 4.99997H5.25C5.80228 4.99997 6.25 4.55225 6.25 3.99997V1.99997C6.25 1.44768 5.80228 0.999969 5.25 0.999969Z" stroke="#E6704B" stroke-linecap="round" stroke-linejoin="bevel"/>
<path d="M5.25 6.99997H3.25C2.69772 6.99997 2.25 7.44768 2.25 7.99997V9.99997C2.25 10.5523 2.69772 11 3.25 11H5.25C5.80228 11 6.25 10.5523 6.25 9.99997V7.99997C6.25 7.44768 5.80228 6.99997 5.25 6.99997Z" stroke="#E6704B" stroke-linecap="round" stroke-linejoin="bevel"/>
<path d="M10.75 7.99994H7.75" stroke="#E6704B" stroke-linecap="round" stroke-linejoin="bevel"/>
<path d="M9.75 9.99997H7.75" stroke="#E6704B" stroke-linecap="round" stroke-linejoin="bevel"/>
<path d="M9.75 3.99997H7.75" stroke="#E6704B" stroke-linecap="round" stroke-linejoin="bevel"/>
<path d="M10.75 1.99994H7.75" stroke="#E6704B" stroke-linecap="round" stroke-linejoin="bevel"/>
</svg>
