<svg width="17" height="16" viewBox="0 0 17 16" fill="none" xmlns="http://www.w3.org/2000/svg">
<g clip-path="url(#clip0)">
<path fill-rule="evenodd" clip-rule="evenodd" d="M9.00269 3.26004C9.63921 2.62352 10.5025 2.26593 11.4027 2.26593C12.3029 2.26593 13.1662 2.62352 13.8027 3.26004C14.4392 3.89656 14.7968 4.75987 14.7968 5.66004C14.7968 6.56022 14.4392 7.42352 13.8027 8.06004L12.9294 8.93337L8.12936 13.7334L3.32936 8.93337L2.45603 8.06004C1.81951 7.42352 1.46191 6.56022 1.46191 5.66004C1.46191 4.75987 1.81951 3.89656 2.45603 3.26004C3.09255 2.62352 3.95585 2.26593 4.85603 2.26593C5.7562 2.26593 6.61951 2.62352 7.25603 3.26004L8.12936 4.13338L9.00269 3.26004Z" stroke="#151515" stroke-width="2.5" stroke-linecap="round" stroke-linejoin="round"/>
</g>
<defs>
<clipPath id="clip0">
<rect width="16" height="16" fill="white" transform="translate(0.128906)"/>
</clipPath>
</defs>
</svg>
