<svg width="17" height="17" viewBox="0 0 17 17" fill="none" xmlns="http://www.w3.org/2000/svg">
<g clip-path="url(#clip0)">
<path fill-rule="evenodd" clip-rule="evenodd" d="M9.70094 3.76001C10.3375 3.12349 11.2008 2.7659 12.1009 2.7659C13.0011 2.7659 13.8644 3.12349 14.5009 3.76001C15.1375 4.39653 15.4951 5.25984 15.4951 6.16001C15.4951 7.06019 15.1375 7.92349 14.5009 8.56001L13.6276 9.43334L8.8276 14.2333L4.0276 9.43334L3.15427 8.56001C2.51775 7.92349 2.16016 7.06019 2.16016 6.16001C2.16016 5.25984 2.51775 4.39653 3.15427 3.76001C3.79079 3.12349 4.65409 2.7659 5.55427 2.7659C6.45444 2.7659 7.31775 3.12349 7.95427 3.76001L8.8276 4.63334L9.70094 3.76001Z" stroke="#E6704B" stroke-width="2" stroke-linecap="round" stroke-linejoin="round"/>
</g>
<defs>
<clipPath id="clip0">
<rect width="16" height="16" fill="white" transform="translate(0.828125 0.5)"/>
</clipPath>
</defs>
</svg>
