<svg width="109" height="20" viewBox="0 0 109 20" fill="none" xmlns="http://www.w3.org/2000/svg">
<g clip-path="url(#clip0)">
<path fill-rule="evenodd" clip-rule="evenodd" d="M9.29604 2.65832C9.3536 2.47578 9.46785 2.31635 9.62221 2.20318C9.77656 2.09001 9.96297 2.02899 10.1544 2.02899C10.3458 2.02899 10.5322 2.09001 10.6865 2.20318C10.8409 2.31635 10.9551 2.47578 11.0127 2.65832L12.5627 7.42498H17.5627C17.7609 7.41749 17.9562 7.4751 18.1186 7.58902C18.281 7.70293 18.4017 7.86689 18.4621 8.05583C18.5226 8.24478 18.5195 8.44832 18.4534 8.63536C18.3873 8.82241 18.2618 8.98266 18.096 9.09165L14.0377 12.0333L15.5877 16.8083C15.649 16.9902 15.6505 17.1869 15.5921 17.3698C15.5337 17.5526 15.4183 17.7119 15.2629 17.8246C15.1075 17.9372 14.9201 17.9971 14.7282 17.9957C14.5362 17.9943 14.3498 17.9316 14.196 17.8166L10.1294 14.8416L6.07104 17.7917C5.91729 17.9066 5.73084 17.9693 5.53891 17.9707C5.34697 17.9721 5.15961 17.9122 5.00418 17.7996C4.84875 17.6869 4.7334 17.5276 4.67496 17.3448C4.61653 17.1619 4.61807 16.9652 4.67937 16.7833L6.22937 12.0083L2.17104 9.06665C2.00527 8.95766 1.87975 8.79741 1.81364 8.61036C1.74753 8.42332 1.74447 8.21978 1.80493 8.03083C1.8654 7.84189 1.98605 7.67793 2.14847 7.56402C2.31088 7.4501 2.50613 7.39249 2.70437 7.39998H7.70437L9.29604 2.65832Z" stroke="#EBEBEB" stroke-width="1.5" stroke-linecap="round" stroke-linejoin="round"/>
<path fill-rule="evenodd" clip-rule="evenodd" d="M31.296 2.65832C31.3536 2.47578 31.4679 2.31635 31.6222 2.20318C31.7766 2.09001 31.963 2.02899 32.1544 2.02899C32.3458 2.02899 32.5322 2.09001 32.6865 2.20318C32.8409 2.31635 32.9551 2.47578 33.0127 2.65832L34.5627 7.42498H39.5627C39.7609 7.41749 39.9562 7.4751 40.1186 7.58902C40.281 7.70293 40.4017 7.86689 40.4621 8.05583C40.5226 8.24478 40.5195 8.44832 40.4534 8.63536C40.3873 8.82241 40.2618 8.98266 40.096 9.09165L36.0377 12.0333L37.5877 16.8083C37.649 16.9902 37.6505 17.1869 37.5921 17.3698C37.5337 17.5526 37.4183 17.7119 37.2629 17.8246C37.1075 17.9372 36.9201 17.9971 36.7282 17.9957C36.5362 17.9943 36.3498 17.9316 36.196 17.8166L32.1294 14.8416L28.071 17.7917C27.9173 17.9066 27.7308 17.9693 27.5389 17.9707C27.347 17.9721 27.1596 17.9122 27.0042 17.7996C26.8488 17.6869 26.7334 17.5276 26.675 17.3448C26.6165 17.1619 26.6181 16.9652 26.6794 16.7833L28.2294 12.0083L24.171 9.06665C24.0053 8.95766 23.8797 8.79741 23.8136 8.61036C23.7475 8.42332 23.7445 8.21978 23.8049 8.03083C23.8654 7.84189 23.9861 7.67793 24.1485 7.56402C24.3109 7.4501 24.5061 7.39249 24.7044 7.39998H29.7044L31.296 2.65832Z" stroke="#EBEBEB" stroke-width="1.5" stroke-linecap="round" stroke-linejoin="round"/>
<path fill-rule="evenodd" clip-rule="evenodd" d="M53.296 2.65832C53.3536 2.47578 53.4679 2.31635 53.6222 2.20318C53.7766 2.09001 53.963 2.02899 54.1544 2.02899C54.3458 2.02899 54.5322 2.09001 54.6865 2.20318C54.8409 2.31635 54.9551 2.47578 55.0127 2.65832L56.5627 7.42498H61.5627C61.7609 7.41749 61.9562 7.4751 62.1186 7.58902C62.281 7.70293 62.4017 7.86689 62.4621 8.05583C62.5226 8.24478 62.5195 8.44832 62.4534 8.63536C62.3873 8.82241 62.2618 8.98266 62.096 9.09165L58.0377 12.0333L59.5877 16.8083C59.649 16.9902 59.6505 17.1869 59.5921 17.3698C59.5337 17.5526 59.4183 17.7119 59.2629 17.8246C59.1075 17.9372 58.9201 17.9971 58.7282 17.9957C58.5362 17.9943 58.3498 17.9316 58.196 17.8166L54.1294 14.8416L50.071 17.7917C49.9173 17.9066 49.7308 17.9693 49.5389 17.9707C49.347 17.9721 49.1596 17.9122 49.0042 17.7996C48.8488 17.6869 48.7334 17.5276 48.675 17.3448C48.6165 17.1619 48.6181 16.9652 48.6794 16.7833L50.2294 12.0083L46.171 9.06665C46.0053 8.95766 45.8797 8.79741 45.8136 8.61036C45.7475 8.42332 45.7445 8.21978 45.8049 8.03083C45.8654 7.84189 45.9861 7.67793 46.1485 7.56402C46.3109 7.4501 46.5061 7.39249 46.7044 7.39998H51.7044L53.296 2.65832Z" stroke="#EBEBEB" stroke-width="1.5" stroke-linecap="round" stroke-linejoin="round"/>
<path fill-rule="evenodd" clip-rule="evenodd" d="M75.296 2.65832C75.3536 2.47578 75.4679 2.31635 75.6222 2.20318C75.7766 2.09001 75.963 2.02899 76.1544 2.02899C76.3458 2.02899 76.5322 2.09001 76.6865 2.20318C76.8409 2.31635 76.9551 2.47578 77.0127 2.65832L78.5627 7.42498H83.5627C83.7609 7.41749 83.9562 7.4751 84.1186 7.58902C84.281 7.70293 84.4017 7.86689 84.4621 8.05583C84.5226 8.24478 84.5195 8.44832 84.4534 8.63536C84.3873 8.82241 84.2618 8.98266 84.096 9.09165L80.0377 12.0333L81.5877 16.8083C81.649 16.9902 81.6505 17.1869 81.5921 17.3698C81.5337 17.5526 81.4183 17.7119 81.2629 17.8246C81.1075 17.9372 80.9201 17.9971 80.7282 17.9957C80.5362 17.9943 80.3498 17.9316 80.196 17.8166L76.1294 14.8416L72.071 17.7917C71.9173 17.9066 71.7308 17.9693 71.5389 17.9707C71.347 17.9721 71.1596 17.9122 71.0042 17.7996C70.8488 17.6869 70.7334 17.5276 70.675 17.3448C70.6165 17.1619 70.6181 16.9652 70.6794 16.7833L72.2294 12.0083L68.171 9.06665C68.0053 8.95766 67.8797 8.79741 67.8136 8.61036C67.7475 8.42332 67.7445 8.21978 67.8049 8.03083C67.8654 7.84189 67.9861 7.67793 68.1485 7.56402C68.3109 7.4501 68.5061 7.39249 68.7044 7.39998H73.7044L75.296 2.65832Z" stroke="#EBEBEB" stroke-width="1.5" stroke-linecap="round" stroke-linejoin="round"/>
<path fill-rule="evenodd" clip-rule="evenodd" d="M97.296 2.65832C97.3536 2.47578 97.4679 2.31635 97.6222 2.20318C97.7766 2.09001 97.963 2.02899 98.1544 2.02899C98.3458 2.02899 98.5322 2.09001 98.6865 2.20318C98.8409 2.31635 98.9551 2.47578 99.0127 2.65832L100.563 7.42498H105.563C105.761 7.41749 105.956 7.4751 106.119 7.58902C106.281 7.70293 106.402 7.86689 106.462 8.05583C106.523 8.24478 106.52 8.44832 106.453 8.63536C106.387 8.82241 106.262 8.98266 106.096 9.09165L102.038 12.0333L103.588 16.8083C103.649 16.9902 103.651 17.1869 103.592 17.3698C103.534 17.5526 103.418 17.7119 103.263 17.8246C103.107 17.9372 102.92 17.9971 102.728 17.9957C102.536 17.9943 102.35 17.9316 102.196 17.8166L98.1294 14.8416L94.071 17.7917C93.9173 17.9066 93.7308 17.9693 93.5389 17.9707C93.347 17.9721 93.1596 17.9122 93.0042 17.7996C92.8488 17.6869 92.7334 17.5276 92.675 17.3448C92.6165 17.1619 92.6181 16.9652 92.6794 16.7833L94.2294 12.0083L90.171 9.06665C90.0053 8.95766 89.8797 8.79741 89.8136 8.61036C89.7475 8.42332 89.7445 8.21978 89.8049 8.03083C89.8654 7.84189 89.9861 7.67793 90.1485 7.56402C90.3109 7.4501 90.5061 7.39249 90.7044 7.39998H95.7044L97.296 2.65832Z" stroke="#EBEBEB" stroke-width="1.5" stroke-linecap="round" stroke-linejoin="round"/>
</g>
<defs>
<clipPath id="clip0">
<rect width="108" height="20" fill="white" transform="translate(0.128906)"/>
</clipPath>
</defs>
</svg>
