<svg width="89" height="16" viewBox="0 0 89 16" fill="none" xmlns="http://www.w3.org/2000/svg">
<g clip-path="url(#clip0)">
<path fill-rule="evenodd" clip-rule="evenodd" d="M7.34191 2.1266C7.38796 1.98057 7.47936 1.85303 7.60284 1.76249C7.72633 1.67195 7.87546 1.62314 8.02857 1.62314C8.18169 1.62314 8.33082 1.67195 8.4543 1.76249C8.57779 1.85303 8.66919 1.98057 8.71524 2.1266L9.95524 5.93993H13.9552C14.1138 5.93394 14.27 5.98003 14.4 6.07116C14.5299 6.16229 14.6264 6.29345 14.6748 6.44461C14.7232 6.59577 14.7207 6.7586 14.6678 6.90824C14.6149 7.05787 14.5145 7.18608 14.3819 7.27327L11.1352 9.6266L12.3752 13.4466C12.4243 13.5921 12.4255 13.7495 12.3788 13.8957C12.332 14.042 12.2397 14.1695 12.1154 14.2596C11.991 14.3497 11.8412 14.3977 11.6876 14.3965C11.5341 14.3954 11.3849 14.3452 11.2619 14.2533L8.00857 11.8733L4.76191 14.2333C4.63891 14.3252 4.48975 14.3754 4.3362 14.3765C4.18266 14.3777 4.03277 14.3297 3.90842 14.2396C3.78408 14.1495 3.69179 14.022 3.64505 13.8757C3.5983 13.7295 3.59953 13.5721 3.64857 13.4266L4.88857 9.6066L1.64191 7.25327C1.5093 7.16608 1.40888 7.03787 1.35599 6.88824C1.3031 6.7386 1.30066 6.57577 1.34902 6.42461C1.39739 6.27345 1.49392 6.14229 1.62385 6.05116C1.75379 5.96003 1.90998 5.91394 2.06857 5.91993H6.06857L7.34191 2.1266Z" fill="#151515"/>
<path fill-rule="evenodd" clip-rule="evenodd" d="M25.3419 2.1266C25.388 1.98057 25.4794 1.85303 25.6028 1.76249C25.7263 1.67195 25.8755 1.62314 26.0286 1.62314C26.1817 1.62314 26.3308 1.67195 26.4543 1.76249C26.5778 1.85303 26.6692 1.98057 26.7152 2.1266L27.9552 5.93993H31.9552C32.1138 5.93394 32.27 5.98003 32.4 6.07116C32.5299 6.16229 32.6264 6.29345 32.6748 6.44461C32.7232 6.59577 32.7207 6.7586 32.6678 6.90824C32.6149 7.05787 32.5145 7.18608 32.3819 7.27327L29.1352 9.6266L30.3752 13.4466C30.4243 13.5921 30.4255 13.7495 30.3788 13.8957C30.332 14.042 30.2397 14.1695 30.1154 14.2596C29.991 14.3497 29.8412 14.3977 29.6876 14.3965C29.5341 14.3954 29.3849 14.3452 29.2619 14.2533L26.0086 11.8733L22.7619 14.2333C22.6389 14.3252 22.4898 14.3754 22.3362 14.3765C22.1827 14.3777 22.0328 14.3297 21.9084 14.2396C21.7841 14.1495 21.6918 14.022 21.645 13.8757C21.5983 13.7295 21.5995 13.5721 21.6486 13.4266L22.8886 9.6066L19.6419 7.25327C19.5093 7.16608 19.4089 7.03787 19.356 6.88824C19.3031 6.7386 19.3007 6.57577 19.349 6.42461C19.3974 6.27345 19.4939 6.14229 19.6239 6.05116C19.7538 5.96003 19.91 5.91394 20.0686 5.91993H24.0686L25.3419 2.1266Z" fill="#151515"/>
<path fill-rule="evenodd" clip-rule="evenodd" d="M43.3419 2.1266C43.388 1.98057 43.4794 1.85303 43.6028 1.76249C43.7263 1.67195 43.8755 1.62314 44.0286 1.62314C44.1817 1.62314 44.3308 1.67195 44.4543 1.76249C44.5778 1.85303 44.6692 1.98057 44.7152 2.1266L45.9552 5.93993H49.9552C50.1138 5.93394 50.27 5.98003 50.4 6.07116C50.5299 6.16229 50.6264 6.29345 50.6748 6.44461C50.7232 6.59577 50.7207 6.7586 50.6678 6.90824C50.6149 7.05787 50.5145 7.18608 50.3819 7.27327L47.1352 9.6266L48.3752 13.4466C48.4243 13.5921 48.4255 13.7495 48.3788 13.8957C48.332 14.042 48.2397 14.1695 48.1154 14.2596C47.991 14.3497 47.8412 14.3977 47.6876 14.3965C47.5341 14.3954 47.3849 14.3452 47.2619 14.2533L44.0086 11.8733L40.7619 14.2333C40.6389 14.3252 40.4898 14.3754 40.3362 14.3765C40.1827 14.3777 40.0328 14.3297 39.9084 14.2396C39.7841 14.1495 39.6918 14.022 39.645 13.8757C39.5983 13.7295 39.5995 13.5721 39.6486 13.4266L40.8886 9.6066L37.6419 7.25327C37.5093 7.16608 37.4089 7.03787 37.356 6.88824C37.3031 6.7386 37.3007 6.57577 37.349 6.42461C37.3974 6.27345 37.4939 6.14229 37.6239 6.05116C37.7538 5.96003 37.91 5.91394 38.0686 5.91993H42.0686L43.3419 2.1266Z" fill="#151515"/>
<path fill-rule="evenodd" clip-rule="evenodd" d="M61.3419 2.1266C61.388 1.98057 61.4794 1.85303 61.6028 1.76249C61.7263 1.67195 61.8755 1.62314 62.0286 1.62314C62.1817 1.62314 62.3308 1.67195 62.4543 1.76249C62.5778 1.85303 62.6692 1.98057 62.7152 2.1266L63.9552 5.93993H67.9552C68.1138 5.93394 68.27 5.98003 68.4 6.07116C68.5299 6.16229 68.6264 6.29345 68.6748 6.44461C68.7232 6.59577 68.7207 6.7586 68.6678 6.90824C68.6149 7.05787 68.5145 7.18608 68.3819 7.27327L65.1352 9.6266L66.3752 13.4466C66.4243 13.5921 66.4255 13.7495 66.3788 13.8957C66.332 14.042 66.2397 14.1695 66.1154 14.2596C65.991 14.3497 65.8412 14.3977 65.6876 14.3965C65.5341 14.3954 65.3849 14.3452 65.2619 14.2533L62.0086 11.8733L58.7619 14.2333C58.6389 14.3252 58.4898 14.3754 58.3362 14.3765C58.1827 14.3777 58.0328 14.3297 57.9084 14.2396C57.7841 14.1495 57.6918 14.022 57.645 13.8757C57.5983 13.7295 57.5995 13.5721 57.6486 13.4266L58.8886 9.6066L55.6419 7.25327C55.5093 7.16608 55.4089 7.03787 55.356 6.88824C55.3031 6.7386 55.3007 6.57577 55.349 6.42461C55.3974 6.27345 55.4939 6.14229 55.6239 6.05116C55.7538 5.96003 55.91 5.91394 56.0686 5.91993H60.0686L61.3419 2.1266Z" fill="#151515"/>
<g clip-path="url(#clip1)">
<path fill-rule="evenodd" clip-rule="evenodd" d="M79.3419 2.1266C79.388 1.98057 79.4794 1.85303 79.6028 1.76249C79.7263 1.67195 79.8755 1.62314 80.0286 1.62314C80.1817 1.62314 80.3308 1.67195 80.4543 1.76249C80.5778 1.85303 80.6692 1.98057 80.7152 2.1266L81.9552 5.93993H85.9552C86.1138 5.93394 86.27 5.98003 86.4 6.07116C86.5299 6.16229 86.6264 6.29345 86.6748 6.44461C86.7232 6.59577 86.7207 6.7586 86.6678 6.90824C86.6149 7.05787 86.5145 7.18608 86.3819 7.27327L83.1352 9.6266L84.3752 13.4466C84.4243 13.5921 84.4255 13.7495 84.3788 13.8957C84.332 14.042 84.2397 14.1695 84.1154 14.2596C83.991 14.3497 83.8412 14.3977 83.6876 14.3965C83.5341 14.3954 83.3849 14.3452 83.2619 14.2533L80.0086 11.8733L76.7619 14.2333C76.6389 14.3252 76.4898 14.3754 76.3362 14.3765C76.1827 14.3777 76.0328 14.3297 75.9084 14.2396C75.7841 14.1495 75.6918 14.022 75.645 13.8757C75.5983 13.7295 75.5995 13.5721 75.6486 13.4266L76.8886 9.6066L73.6419 7.25327C73.5093 7.16608 73.4089 7.03787 73.356 6.88824C73.3031 6.7386 73.3007 6.57577 73.349 6.42461C73.3974 6.27345 73.4939 6.14229 73.6239 6.05116C73.7538 5.96003 73.91 5.91394 74.0686 5.91993H78.0686L79.3419 2.1266Z" stroke="#EBEBEB" stroke-width="1.5" stroke-linecap="round" stroke-linejoin="round"/>
</g>
</g>
<defs>
<clipPath id="clip0">
<rect width="88" height="16" fill="white" transform="translate(0.00878906)"/>
</clipPath>
<clipPath id="clip1">
<rect width="16" height="16" fill="white" transform="translate(72.0088)"/>
</clipPath>
</defs>
</svg>
