<svg width="89" height="16" viewBox="0 0 89 16" fill="none" xmlns="http://www.w3.org/2000/svg">
<g clip-path="url(#clip0)">
<path fill-rule="evenodd" clip-rule="evenodd" d="M7.34386 2.12663C7.38991 1.9806 7.48132 1.85306 7.6048 1.76252C7.72828 1.67198 7.87741 1.62317 8.03053 1.62317C8.18364 1.62317 8.33278 1.67198 8.45626 1.76252C8.57974 1.85306 8.67114 1.9806 8.71719 2.12663L9.95719 5.93996H13.9572C14.1158 5.93397 14.272 5.98006 14.4019 6.07119C14.5318 6.16232 14.6284 6.29348 14.6767 6.44464C14.7251 6.5958 14.7227 6.75863 14.6698 6.90827C14.6169 7.0579 14.5165 7.18611 14.3839 7.2733L11.1372 9.62663L12.3772 13.4466C12.4262 13.5921 12.4275 13.7495 12.3807 13.8958C12.334 14.042 12.2417 14.1695 12.1173 14.2596C11.993 14.3497 11.8431 14.3977 11.6896 14.3966C11.536 14.3954 11.3869 14.3452 11.2639 14.2533L8.01053 11.8733L4.76386 14.2333C4.64087 14.3252 4.4917 14.3754 4.33816 14.3766C4.18461 14.3777 4.03472 14.3297 3.91038 14.2396C3.78603 14.1495 3.69375 14.022 3.647 13.8758C3.60025 13.7295 3.60149 13.5721 3.65053 13.4266L4.89053 9.60663L1.64386 7.2533C1.51125 7.16611 1.41083 7.0379 1.35794 6.88827C1.30505 6.73863 1.30261 6.5758 1.35098 6.42464C1.39935 6.27348 1.49587 6.14232 1.62581 6.05119C1.75574 5.96006 1.91193 5.91397 2.07053 5.91996H6.07053L7.34386 2.12663Z" fill="#151515"/>
<path fill-rule="evenodd" clip-rule="evenodd" d="M25.3439 2.12663C25.3899 1.9806 25.4813 1.85306 25.6048 1.76252C25.7283 1.67198 25.8774 1.62317 26.0305 1.62317C26.1836 1.62317 26.3328 1.67198 26.4563 1.76252C26.5797 1.85306 26.6711 1.9806 26.7172 2.12663L27.9572 5.93996H31.9572C32.1158 5.93397 32.272 5.98006 32.4019 6.07119C32.5318 6.16232 32.6284 6.29348 32.6767 6.44464C32.7251 6.5958 32.7227 6.75863 32.6698 6.90827C32.6169 7.0579 32.5165 7.18611 32.3839 7.2733L29.1372 9.62663L30.3772 13.4466C30.4262 13.5921 30.4275 13.7495 30.3807 13.8958C30.334 14.042 30.2417 14.1695 30.1173 14.2596C29.993 14.3497 29.8431 14.3977 29.6896 14.3966C29.536 14.3954 29.3869 14.3452 29.2639 14.2533L26.0105 11.8733L22.7639 14.2333C22.6409 14.3252 22.4917 14.3754 22.3382 14.3766C22.1846 14.3777 22.0347 14.3297 21.9104 14.2396C21.786 14.1495 21.6937 14.022 21.647 13.8758C21.6003 13.7295 21.6015 13.5721 21.6505 13.4266L22.8905 9.60663L19.6439 7.2533C19.5112 7.16611 19.4108 7.0379 19.3579 6.88827C19.3051 6.73863 19.3026 6.5758 19.351 6.42464C19.3993 6.27348 19.4959 6.14232 19.6258 6.05119C19.7557 5.96006 19.9119 5.91397 20.0705 5.91996H24.0705L25.3439 2.12663Z" fill="#151515"/>
<path fill-rule="evenodd" clip-rule="evenodd" d="M43.3439 2.12663C43.3899 1.9806 43.4813 1.85306 43.6048 1.76252C43.7283 1.67198 43.8774 1.62317 44.0305 1.62317C44.1836 1.62317 44.3328 1.67198 44.4563 1.76252C44.5797 1.85306 44.6711 1.9806 44.7172 2.12663L45.9572 5.93996H49.9572C50.1158 5.93397 50.272 5.98006 50.4019 6.07119C50.5318 6.16232 50.6284 6.29348 50.6767 6.44464C50.7251 6.5958 50.7227 6.75863 50.6698 6.90827C50.6169 7.0579 50.5165 7.18611 50.3839 7.2733L47.1372 9.62663L48.3772 13.4466C48.4262 13.5921 48.4275 13.7495 48.3807 13.8958C48.334 14.042 48.2417 14.1695 48.1173 14.2596C47.993 14.3497 47.8431 14.3977 47.6896 14.3966C47.536 14.3954 47.3869 14.3452 47.2639 14.2533L44.0105 11.8733L40.7639 14.2333C40.6409 14.3252 40.4917 14.3754 40.3382 14.3766C40.1846 14.3777 40.0347 14.3297 39.9104 14.2396C39.786 14.1495 39.6937 14.022 39.647 13.8758C39.6003 13.7295 39.6015 13.5721 39.6505 13.4266L40.8905 9.60663L37.6439 7.2533C37.5112 7.16611 37.4108 7.0379 37.3579 6.88827C37.3051 6.73863 37.3026 6.5758 37.351 6.42464C37.3993 6.27348 37.4959 6.14232 37.6258 6.05119C37.7557 5.96006 37.9119 5.91397 38.0705 5.91996H42.0705L43.3439 2.12663Z" fill="#151515"/>
<path fill-rule="evenodd" clip-rule="evenodd" d="M61.3439 2.12663C61.3899 1.9806 61.4813 1.85306 61.6048 1.76252C61.7283 1.67198 61.8774 1.62317 62.0305 1.62317C62.1836 1.62317 62.3328 1.67198 62.4563 1.76252C62.5797 1.85306 62.6711 1.9806 62.7172 2.12663L63.9572 5.93996H67.9572C68.1158 5.93397 68.272 5.98006 68.4019 6.07119C68.5318 6.16232 68.6284 6.29348 68.6767 6.44464C68.7251 6.5958 68.7227 6.75863 68.6698 6.90827C68.6169 7.0579 68.5165 7.18611 68.3839 7.2733L65.1372 9.62663L66.3772 13.4466C66.4262 13.5921 66.4275 13.7495 66.3807 13.8958C66.334 14.042 66.2417 14.1695 66.1173 14.2596C65.993 14.3497 65.8431 14.3977 65.6896 14.3966C65.536 14.3954 65.3869 14.3452 65.2639 14.2533L62.0105 11.8733L58.7639 14.2333C58.6409 14.3252 58.4917 14.3754 58.3382 14.3766C58.1846 14.3777 58.0347 14.3297 57.9104 14.2396C57.786 14.1495 57.6937 14.022 57.647 13.8758C57.6003 13.7295 57.6015 13.5721 57.6505 13.4266L58.8905 9.60663L55.6439 7.2533C55.5112 7.16611 55.4108 7.0379 55.3579 6.88827C55.3051 6.73863 55.3026 6.5758 55.351 6.42464C55.3993 6.27348 55.4959 6.14232 55.6258 6.05119C55.7557 5.96006 55.9119 5.91397 56.0705 5.91996H60.0705L61.3439 2.12663Z" fill="#151515"/>
<path fill-rule="evenodd" clip-rule="evenodd" d="M79.3439 2.12663C79.3899 1.9806 79.4813 1.85306 79.6048 1.76252C79.7283 1.67198 79.8774 1.62317 80.0305 1.62317C80.1836 1.62317 80.3328 1.67198 80.4563 1.76252C80.5797 1.85306 80.6711 1.9806 80.7172 2.12663L81.9572 5.93996H85.9572C86.1158 5.93397 86.272 5.98006 86.4019 6.07119C86.5318 6.16232 86.6284 6.29348 86.6767 6.44464C86.7251 6.5958 86.7227 6.75863 86.6698 6.90827C86.6169 7.0579 86.5165 7.18611 86.3839 7.2733L83.1372 9.62663L84.3772 13.4466C84.4262 13.5921 84.4275 13.7495 84.3807 13.8958C84.334 14.042 84.2417 14.1695 84.1173 14.2596C83.993 14.3497 83.8431 14.3977 83.6896 14.3966C83.536 14.3954 83.3869 14.3452 83.2639 14.2533L80.0105 11.8733L76.7639 14.2333C76.6409 14.3252 76.4917 14.3754 76.3382 14.3766C76.1846 14.3777 76.0347 14.3297 75.9104 14.2396C75.786 14.1495 75.6937 14.022 75.647 13.8758C75.6003 13.7295 75.6015 13.5721 75.6505 13.4266L76.8905 9.60663L73.6439 7.2533C73.5112 7.16611 73.4108 7.0379 73.3579 6.88827C73.3051 6.73863 73.3026 6.5758 73.351 6.42464C73.3993 6.27348 73.4959 6.14232 73.6258 6.05119C73.7557 5.96006 73.9119 5.91397 74.0705 5.91996H78.0705L79.3439 2.12663Z" fill="#151515"/>
</g>
<defs>
<clipPath id="clip0">
<rect width="88" height="16" fill="white" transform="translate(0.00976562)"/>
</clipPath>
</defs>
</svg>
